<?xml version="1.0" encoding="utf-8" standalone="no"?>
<!DOCTYPE svg PUBLIC "-//W3C//DTD SVG 1.1//EN"
  "http://www.w3.org/Graphics/SVG/1.1/DTD/svg11.dtd">
<svg xmlns:xlink="http://www.w3.org/1999/xlink" width="864pt" height="360pt" viewBox="0 0 864 360" xmlns="http://www.w3.org/2000/svg" version="1.1">
 <metadata>
  <rdf:RDF xmlns:dc="http://purl.org/dc/elements/1.1/" xmlns:cc="http://creativecommons.org/ns#" xmlns:rdf="http://www.w3.org/1999/02/22-rdf-syntax-ns#">
   <cc:Work>
    <dc:type rdf:resource="http://purl.org/dc/dcmitype/StillImage"/>
    <dc:date>2022-09-14T20:29:40.714223</dc:date>
    <dc:format>image/svg+xml</dc:format>
    <dc:creator>
     <cc:Agent>
      <dc:title>Matplotlib v3.5.3, https://matplotlib.org/</dc:title>
     </cc:Agent>
    </dc:creator>
   </cc:Work>
  </rdf:RDF>
 </metadata>
 <defs>
  <style type="text/css">*{stroke-linejoin: round; stroke-linecap: butt}</style>
 </defs>
 <g id="figure_1">
  <g id="patch_1">
   <path d="M 0 360 
L 864 360 
L 864 0 
L 0 0 
L 0 360 
z
" style="fill: none; opacity: 0"/>
  </g>
  <g id="axes_1">
   <g id="patch_2">
    <path d="M 108 320.4 
L 777.6 320.4 
L 777.6 43.2 
L 108 43.2 
L 108 320.4 
z
" style="fill: none; opacity: 0"/>
   </g>
   <g id="matplotlib.axis_1">
    <g id="xtick_1">
     <g id="line2d_1">
      <path d="M 195.367691 320.4 
L 195.367691 43.2 
" clip-path="url(#p80e6db7088)" style="fill: none; stroke-dasharray: 5.12,1.28,0.8,1.28; stroke-dashoffset: 0; stroke: #b0b0b0; stroke-width: 0.8"/>
     </g>
     <g id="line2d_2">
      <defs>
       <path id="md96e3d0cb7" d="M 0 0 
L 0 3.5 
" style="stroke: #a9a9a9; stroke-width: 0.8"/>
      </defs>
      <g>
       <use xlink:href="#md96e3d0cb7" x="195.367691" y="320.4" style="fill: #a9a9a9; stroke: #a9a9a9; stroke-width: 0.8"/>
      </g>
     </g>
     <g id="text_1">
      <!-- 2021-09 -->
      <g style="fill: #a9a9a9" transform="translate(174.476285 334.998438)scale(0.1 -0.1)">
       <defs>
        <path id="DejaVuSans-32" d="M 1228 531 
L 3431 531 
L 3431 0 
L 469 0 
L 469 531 
Q 828 903 1448 1529 
Q 2069 2156 2228 2338 
Q 2531 2678 2651 2914 
Q 2772 3150 2772 3378 
Q 2772 3750 2511 3984 
Q 2250 4219 1831 4219 
Q 1534 4219 1204 4116 
Q 875 4013 500 3803 
L 500 4441 
Q 881 4594 1212 4672 
Q 1544 4750 1819 4750 
Q 2544 4750 2975 4387 
Q 3406 4025 3406 3419 
Q 3406 3131 3298 2873 
Q 3191 2616 2906 2266 
Q 2828 2175 2409 1742 
Q 1991 1309 1228 531 
z
" transform="scale(0.015625)"/>
        <path id="DejaVuSans-30" d="M 2034 4250 
Q 1547 4250 1301 3770 
Q 1056 3291 1056 2328 
Q 1056 1369 1301 889 
Q 1547 409 2034 409 
Q 2525 409 2770 889 
Q 3016 1369 3016 2328 
Q 3016 3291 2770 3770 
Q 2525 4250 2034 4250 
z
M 2034 4750 
Q 2819 4750 3233 4129 
Q 3647 3509 3647 2328 
Q 3647 1150 3233 529 
Q 2819 -91 2034 -91 
Q 1250 -91 836 529 
Q 422 1150 422 2328 
Q 422 3509 836 4129 
Q 1250 4750 2034 4750 
z
" transform="scale(0.015625)"/>
        <path id="DejaVuSans-31" d="M 794 531 
L 1825 531 
L 1825 4091 
L 703 3866 
L 703 4441 
L 1819 4666 
L 2450 4666 
L 2450 531 
L 3481 531 
L 3481 0 
L 794 0 
L 794 531 
z
" transform="scale(0.015625)"/>
        <path id="DejaVuSans-2d" d="M 313 2009 
L 1997 2009 
L 1997 1497 
L 313 1497 
L 313 2009 
z
" transform="scale(0.015625)"/>
        <path id="DejaVuSans-39" d="M 703 97 
L 703 672 
Q 941 559 1184 500 
Q 1428 441 1663 441 
Q 2288 441 2617 861 
Q 2947 1281 2994 2138 
Q 2813 1869 2534 1725 
Q 2256 1581 1919 1581 
Q 1219 1581 811 2004 
Q 403 2428 403 3163 
Q 403 3881 828 4315 
Q 1253 4750 1959 4750 
Q 2769 4750 3195 4129 
Q 3622 3509 3622 2328 
Q 3622 1225 3098 567 
Q 2575 -91 1691 -91 
Q 1453 -91 1209 -44 
Q 966 3 703 97 
z
M 1959 2075 
Q 2384 2075 2632 2365 
Q 2881 2656 2881 3163 
Q 2881 3666 2632 3958 
Q 2384 4250 1959 4250 
Q 1534 4250 1286 3958 
Q 1038 3666 1038 3163 
Q 1038 2656 1286 2365 
Q 1534 2075 1959 2075 
z
" transform="scale(0.015625)"/>
       </defs>
       <use xlink:href="#DejaVuSans-32"/>
       <use xlink:href="#DejaVuSans-30" x="63.623047"/>
       <use xlink:href="#DejaVuSans-32" x="127.246094"/>
       <use xlink:href="#DejaVuSans-31" x="190.869141"/>
       <use xlink:href="#DejaVuSans-2d" x="254.492188"/>
       <use xlink:href="#DejaVuSans-30" x="290.576172"/>
       <use xlink:href="#DejaVuSans-39" x="354.199219"/>
      </g>
     </g>
    </g>
    <g id="xtick_2">
     <g id="line2d_3">
      <path d="M 284.414127 320.4 
L 284.414127 43.2 
" clip-path="url(#p80e6db7088)" style="fill: none; stroke-dasharray: 5.12,1.28,0.8,1.28; stroke-dashoffset: 0; stroke: #b0b0b0; stroke-width: 0.8"/>
     </g>
     <g id="line2d_4">
      <g>
       <use xlink:href="#md96e3d0cb7" x="284.414127" y="320.4" style="fill: #a9a9a9; stroke: #a9a9a9; stroke-width: 0.8"/>
      </g>
     </g>
     <g id="text_2">
      <!-- 2021-11 -->
      <g style="fill: #a9a9a9" transform="translate(263.522721 334.998438)scale(0.1 -0.1)">
       <use xlink:href="#DejaVuSans-32"/>
       <use xlink:href="#DejaVuSans-30" x="63.623047"/>
       <use xlink:href="#DejaVuSans-32" x="127.246094"/>
       <use xlink:href="#DejaVuSans-31" x="190.869141"/>
       <use xlink:href="#DejaVuSans-2d" x="254.492188"/>
       <use xlink:href="#DejaVuSans-31" x="290.576172"/>
       <use xlink:href="#DejaVuSans-31" x="354.199219"/>
      </g>
     </g>
    </g>
    <g id="xtick_3">
     <g id="line2d_5">
      <path d="M 373.460562 320.4 
L 373.460562 43.2 
" clip-path="url(#p80e6db7088)" style="fill: none; stroke-dasharray: 5.12,1.28,0.8,1.28; stroke-dashoffset: 0; stroke: #b0b0b0; stroke-width: 0.8"/>
     </g>
     <g id="line2d_6">
      <g>
       <use xlink:href="#md96e3d0cb7" x="373.460562" y="320.4" style="fill: #a9a9a9; stroke: #a9a9a9; stroke-width: 0.8"/>
      </g>
     </g>
     <g id="text_3">
      <!-- 2022-01 -->
      <g style="fill: #a9a9a9" transform="translate(352.569156 334.998438)scale(0.1 -0.1)">
       <use xlink:href="#DejaVuSans-32"/>
       <use xlink:href="#DejaVuSans-30" x="63.623047"/>
       <use xlink:href="#DejaVuSans-32" x="127.246094"/>
       <use xlink:href="#DejaVuSans-32" x="190.869141"/>
       <use xlink:href="#DejaVuSans-2d" x="254.492188"/>
       <use xlink:href="#DejaVuSans-30" x="290.576172"/>
       <use xlink:href="#DejaVuSans-31" x="354.199219"/>
      </g>
     </g>
    </g>
    <g id="xtick_4">
     <g id="line2d_7">
      <path d="M 459.587443 320.4 
L 459.587443 43.2 
" clip-path="url(#p80e6db7088)" style="fill: none; stroke-dasharray: 5.12,1.28,0.8,1.28; stroke-dashoffset: 0; stroke: #b0b0b0; stroke-width: 0.8"/>
     </g>
     <g id="line2d_8">
      <g>
       <use xlink:href="#md96e3d0cb7" x="459.587443" y="320.4" style="fill: #a9a9a9; stroke: #a9a9a9; stroke-width: 0.8"/>
      </g>
     </g>
     <g id="text_4">
      <!-- 2022-03 -->
      <g style="fill: #a9a9a9" transform="translate(438.696037 334.998438)scale(0.1 -0.1)">
       <defs>
        <path id="DejaVuSans-33" d="M 2597 2516 
Q 3050 2419 3304 2112 
Q 3559 1806 3559 1356 
Q 3559 666 3084 287 
Q 2609 -91 1734 -91 
Q 1441 -91 1130 -33 
Q 819 25 488 141 
L 488 750 
Q 750 597 1062 519 
Q 1375 441 1716 441 
Q 2309 441 2620 675 
Q 2931 909 2931 1356 
Q 2931 1769 2642 2001 
Q 2353 2234 1838 2234 
L 1294 2234 
L 1294 2753 
L 1863 2753 
Q 2328 2753 2575 2939 
Q 2822 3125 2822 3475 
Q 2822 3834 2567 4026 
Q 2313 4219 1838 4219 
Q 1578 4219 1281 4162 
Q 984 4106 628 3988 
L 628 4550 
Q 988 4650 1302 4700 
Q 1616 4750 1894 4750 
Q 2613 4750 3031 4423 
Q 3450 4097 3450 3541 
Q 3450 3153 3228 2886 
Q 3006 2619 2597 2516 
z
" transform="scale(0.015625)"/>
       </defs>
       <use xlink:href="#DejaVuSans-32"/>
       <use xlink:href="#DejaVuSans-30" x="63.623047"/>
       <use xlink:href="#DejaVuSans-32" x="127.246094"/>
       <use xlink:href="#DejaVuSans-32" x="190.869141"/>
       <use xlink:href="#DejaVuSans-2d" x="254.492188"/>
       <use xlink:href="#DejaVuSans-30" x="290.576172"/>
       <use xlink:href="#DejaVuSans-33" x="354.199219"/>
      </g>
     </g>
    </g>
    <g id="xtick_5">
     <g id="line2d_9">
      <path d="M 548.633878 320.4 
L 548.633878 43.2 
" clip-path="url(#p80e6db7088)" style="fill: none; stroke-dasharray: 5.12,1.28,0.8,1.28; stroke-dashoffset: 0; stroke: #b0b0b0; stroke-width: 0.8"/>
     </g>
     <g id="line2d_10">
      <g>
       <use xlink:href="#md96e3d0cb7" x="548.633878" y="320.4" style="fill: #a9a9a9; stroke: #a9a9a9; stroke-width: 0.8"/>
      </g>
     </g>
     <g id="text_5">
      <!-- 2022-05 -->
      <g style="fill: #a9a9a9" transform="translate(527.742472 334.998438)scale(0.1 -0.1)">
       <defs>
        <path id="DejaVuSans-35" d="M 691 4666 
L 3169 4666 
L 3169 4134 
L 1269 4134 
L 1269 2991 
Q 1406 3038 1543 3061 
Q 1681 3084 1819 3084 
Q 2600 3084 3056 2656 
Q 3513 2228 3513 1497 
Q 3513 744 3044 326 
Q 2575 -91 1722 -91 
Q 1428 -91 1123 -41 
Q 819 9 494 109 
L 494 744 
Q 775 591 1075 516 
Q 1375 441 1709 441 
Q 2250 441 2565 725 
Q 2881 1009 2881 1497 
Q 2881 1984 2565 2268 
Q 2250 2553 1709 2553 
Q 1456 2553 1204 2497 
Q 953 2441 691 2322 
L 691 4666 
z
" transform="scale(0.015625)"/>
       </defs>
       <use xlink:href="#DejaVuSans-32"/>
       <use xlink:href="#DejaVuSans-30" x="63.623047"/>
       <use xlink:href="#DejaVuSans-32" x="127.246094"/>
       <use xlink:href="#DejaVuSans-32" x="190.869141"/>
       <use xlink:href="#DejaVuSans-2d" x="254.492188"/>
       <use xlink:href="#DejaVuSans-30" x="290.576172"/>
       <use xlink:href="#DejaVuSans-35" x="354.199219"/>
      </g>
     </g>
    </g>
    <g id="xtick_6">
     <g id="line2d_11">
      <path d="M 637.680314 320.4 
L 637.680314 43.2 
" clip-path="url(#p80e6db7088)" style="fill: none; stroke-dasharray: 5.12,1.28,0.8,1.28; stroke-dashoffset: 0; stroke: #b0b0b0; stroke-width: 0.8"/>
     </g>
     <g id="line2d_12">
      <g>
       <use xlink:href="#md96e3d0cb7" x="637.680314" y="320.4" style="fill: #a9a9a9; stroke: #a9a9a9; stroke-width: 0.8"/>
      </g>
     </g>
     <g id="text_6">
      <!-- 2022-07 -->
      <g style="fill: #a9a9a9" transform="translate(616.788908 334.998438)scale(0.1 -0.1)">
       <defs>
        <path id="DejaVuSans-37" d="M 525 4666 
L 3525 4666 
L 3525 4397 
L 1831 0 
L 1172 0 
L 2766 4134 
L 525 4134 
L 525 4666 
z
" transform="scale(0.015625)"/>
       </defs>
       <use xlink:href="#DejaVuSans-32"/>
       <use xlink:href="#DejaVuSans-30" x="63.623047"/>
       <use xlink:href="#DejaVuSans-32" x="127.246094"/>
       <use xlink:href="#DejaVuSans-32" x="190.869141"/>
       <use xlink:href="#DejaVuSans-2d" x="254.492188"/>
       <use xlink:href="#DejaVuSans-30" x="290.576172"/>
       <use xlink:href="#DejaVuSans-37" x="354.199219"/>
      </g>
     </g>
    </g>
    <g id="xtick_7">
     <g id="line2d_13">
      <path d="M 728.186527 320.4 
L 728.186527 43.2 
" clip-path="url(#p80e6db7088)" style="fill: none; stroke-dasharray: 5.12,1.28,0.8,1.28; stroke-dashoffset: 0; stroke: #b0b0b0; stroke-width: 0.8"/>
     </g>
     <g id="line2d_14">
      <g>
       <use xlink:href="#md96e3d0cb7" x="728.186527" y="320.4" style="fill: #a9a9a9; stroke: #a9a9a9; stroke-width: 0.8"/>
      </g>
     </g>
     <g id="text_7">
      <!-- 2022-09 -->
      <g style="fill: #a9a9a9" transform="translate(707.295121 334.998438)scale(0.1 -0.1)">
       <use xlink:href="#DejaVuSans-32"/>
       <use xlink:href="#DejaVuSans-30" x="63.623047"/>
       <use xlink:href="#DejaVuSans-32" x="127.246094"/>
       <use xlink:href="#DejaVuSans-32" x="190.869141"/>
       <use xlink:href="#DejaVuSans-2d" x="254.492188"/>
       <use xlink:href="#DejaVuSans-30" x="290.576172"/>
       <use xlink:href="#DejaVuSans-39" x="354.199219"/>
      </g>
     </g>
    </g>
   </g>
   <g id="matplotlib.axis_2">
    <g id="ytick_1">
     <g id="line2d_15">
      <path d="M 108 307.895491 
L 777.6 307.895491 
" clip-path="url(#p80e6db7088)" style="fill: none; stroke-dasharray: 5.12,1.28,0.8,1.28; stroke-dashoffset: 0; stroke: #b0b0b0; stroke-width: 0.8"/>
     </g>
     <g id="line2d_16">
      <defs>
       <path id="m32b2bb6773" d="M 0 0 
L -3.5 0 
" style="stroke: #a9a9a9; stroke-width: 0.8"/>
      </defs>
      <g>
       <use xlink:href="#m32b2bb6773" x="108" y="307.895491" style="fill: #a9a9a9; stroke: #a9a9a9; stroke-width: 0.8"/>
      </g>
     </g>
     <g id="text_8">
      <!-- 0 -->
      <g style="fill: #a9a9a9" transform="translate(94.6375 311.694709)scale(0.1 -0.1)">
       <use xlink:href="#DejaVuSans-30"/>
      </g>
     </g>
    </g>
    <g id="ytick_2">
     <g id="line2d_17">
      <path d="M 108 279.248276 
L 777.6 279.248276 
" clip-path="url(#p80e6db7088)" style="fill: none; stroke-dasharray: 5.12,1.28,0.8,1.28; stroke-dashoffset: 0; stroke: #b0b0b0; stroke-width: 0.8"/>
     </g>
     <g id="line2d_18">
      <g>
       <use xlink:href="#m32b2bb6773" x="108" y="279.248276" style="fill: #a9a9a9; stroke: #a9a9a9; stroke-width: 0.8"/>
      </g>
     </g>
     <g id="text_9">
      <!-- 300 -->
      <g style="fill: #a9a9a9" transform="translate(81.9125 283.047495)scale(0.1 -0.1)">
       <use xlink:href="#DejaVuSans-33"/>
       <use xlink:href="#DejaVuSans-30" x="63.623047"/>
       <use xlink:href="#DejaVuSans-30" x="127.246094"/>
      </g>
     </g>
    </g>
    <g id="ytick_3">
     <g id="line2d_19">
      <path d="M 108 250.601061 
L 777.6 250.601061 
" clip-path="url(#p80e6db7088)" style="fill: none; stroke-dasharray: 5.12,1.28,0.8,1.28; stroke-dashoffset: 0; stroke: #b0b0b0; stroke-width: 0.8"/>
     </g>
     <g id="line2d_20">
      <g>
       <use xlink:href="#m32b2bb6773" x="108" y="250.601061" style="fill: #a9a9a9; stroke: #a9a9a9; stroke-width: 0.8"/>
      </g>
     </g>
     <g id="text_10">
      <!-- 600 -->
      <g style="fill: #a9a9a9" transform="translate(81.9125 254.40028)scale(0.1 -0.1)">
       <defs>
        <path id="DejaVuSans-36" d="M 2113 2584 
Q 1688 2584 1439 2293 
Q 1191 2003 1191 1497 
Q 1191 994 1439 701 
Q 1688 409 2113 409 
Q 2538 409 2786 701 
Q 3034 994 3034 1497 
Q 3034 2003 2786 2293 
Q 2538 2584 2113 2584 
z
M 3366 4563 
L 3366 3988 
Q 3128 4100 2886 4159 
Q 2644 4219 2406 4219 
Q 1781 4219 1451 3797 
Q 1122 3375 1075 2522 
Q 1259 2794 1537 2939 
Q 1816 3084 2150 3084 
Q 2853 3084 3261 2657 
Q 3669 2231 3669 1497 
Q 3669 778 3244 343 
Q 2819 -91 2113 -91 
Q 1303 -91 875 529 
Q 447 1150 447 2328 
Q 447 3434 972 4092 
Q 1497 4750 2381 4750 
Q 2619 4750 2861 4703 
Q 3103 4656 3366 4563 
z
" transform="scale(0.015625)"/>
       </defs>
       <use xlink:href="#DejaVuSans-36"/>
       <use xlink:href="#DejaVuSans-30" x="63.623047"/>
       <use xlink:href="#DejaVuSans-30" x="127.246094"/>
      </g>
     </g>
    </g>
    <g id="ytick_4">
     <g id="line2d_21">
      <path d="M 108 221.953846 
L 777.6 221.953846 
" clip-path="url(#p80e6db7088)" style="fill: none; stroke-dasharray: 5.12,1.28,0.8,1.28; stroke-dashoffset: 0; stroke: #b0b0b0; stroke-width: 0.8"/>
     </g>
     <g id="line2d_22">
      <g>
       <use xlink:href="#m32b2bb6773" x="108" y="221.953846" style="fill: #a9a9a9; stroke: #a9a9a9; stroke-width: 0.8"/>
      </g>
     </g>
     <g id="text_11">
      <!-- 900 -->
      <g style="fill: #a9a9a9" transform="translate(81.9125 225.753065)scale(0.1 -0.1)">
       <use xlink:href="#DejaVuSans-39"/>
       <use xlink:href="#DejaVuSans-30" x="63.623047"/>
       <use xlink:href="#DejaVuSans-30" x="127.246094"/>
      </g>
     </g>
    </g>
    <g id="ytick_5">
     <g id="line2d_23">
      <path d="M 108 193.306631 
L 777.6 193.306631 
" clip-path="url(#p80e6db7088)" style="fill: none; stroke-dasharray: 5.12,1.28,0.8,1.28; stroke-dashoffset: 0; stroke: #b0b0b0; stroke-width: 0.8"/>
     </g>
     <g id="line2d_24">
      <g>
       <use xlink:href="#m32b2bb6773" x="108" y="193.306631" style="fill: #a9a9a9; stroke: #a9a9a9; stroke-width: 0.8"/>
      </g>
     </g>
     <g id="text_12">
      <!-- 1200 -->
      <g style="fill: #a9a9a9" transform="translate(75.55 197.10585)scale(0.1 -0.1)">
       <use xlink:href="#DejaVuSans-31"/>
       <use xlink:href="#DejaVuSans-32" x="63.623047"/>
       <use xlink:href="#DejaVuSans-30" x="127.246094"/>
       <use xlink:href="#DejaVuSans-30" x="190.869141"/>
      </g>
     </g>
    </g>
    <g id="ytick_6">
     <g id="line2d_25">
      <path d="M 108 164.659416 
L 777.6 164.659416 
" clip-path="url(#p80e6db7088)" style="fill: none; stroke-dasharray: 5.12,1.28,0.8,1.28; stroke-dashoffset: 0; stroke: #b0b0b0; stroke-width: 0.8"/>
     </g>
     <g id="line2d_26">
      <g>
       <use xlink:href="#m32b2bb6773" x="108" y="164.659416" style="fill: #a9a9a9; stroke: #a9a9a9; stroke-width: 0.8"/>
      </g>
     </g>
     <g id="text_13">
      <!-- 1500 -->
      <g style="fill: #a9a9a9" transform="translate(75.55 168.458635)scale(0.1 -0.1)">
       <use xlink:href="#DejaVuSans-31"/>
       <use xlink:href="#DejaVuSans-35" x="63.623047"/>
       <use xlink:href="#DejaVuSans-30" x="127.246094"/>
       <use xlink:href="#DejaVuSans-30" x="190.869141"/>
      </g>
     </g>
    </g>
    <g id="ytick_7">
     <g id="line2d_27">
      <path d="M 108 136.012202 
L 777.6 136.012202 
" clip-path="url(#p80e6db7088)" style="fill: none; stroke-dasharray: 5.12,1.28,0.8,1.28; stroke-dashoffset: 0; stroke: #b0b0b0; stroke-width: 0.8"/>
     </g>
     <g id="line2d_28">
      <g>
       <use xlink:href="#m32b2bb6773" x="108" y="136.012202" style="fill: #a9a9a9; stroke: #a9a9a9; stroke-width: 0.8"/>
      </g>
     </g>
     <g id="text_14">
      <!-- 1800 -->
      <g style="fill: #a9a9a9" transform="translate(75.55 139.81142)scale(0.1 -0.1)">
       <defs>
        <path id="DejaVuSans-38" d="M 2034 2216 
Q 1584 2216 1326 1975 
Q 1069 1734 1069 1313 
Q 1069 891 1326 650 
Q 1584 409 2034 409 
Q 2484 409 2743 651 
Q 3003 894 3003 1313 
Q 3003 1734 2745 1975 
Q 2488 2216 2034 2216 
z
M 1403 2484 
Q 997 2584 770 2862 
Q 544 3141 544 3541 
Q 544 4100 942 4425 
Q 1341 4750 2034 4750 
Q 2731 4750 3128 4425 
Q 3525 4100 3525 3541 
Q 3525 3141 3298 2862 
Q 3072 2584 2669 2484 
Q 3125 2378 3379 2068 
Q 3634 1759 3634 1313 
Q 3634 634 3220 271 
Q 2806 -91 2034 -91 
Q 1263 -91 848 271 
Q 434 634 434 1313 
Q 434 1759 690 2068 
Q 947 2378 1403 2484 
z
M 1172 3481 
Q 1172 3119 1398 2916 
Q 1625 2713 2034 2713 
Q 2441 2713 2670 2916 
Q 2900 3119 2900 3481 
Q 2900 3844 2670 4047 
Q 2441 4250 2034 4250 
Q 1625 4250 1398 4047 
Q 1172 3844 1172 3481 
z
" transform="scale(0.015625)"/>
       </defs>
       <use xlink:href="#DejaVuSans-31"/>
       <use xlink:href="#DejaVuSans-38" x="63.623047"/>
       <use xlink:href="#DejaVuSans-30" x="127.246094"/>
       <use xlink:href="#DejaVuSans-30" x="190.869141"/>
      </g>
     </g>
    </g>
    <g id="ytick_8">
     <g id="line2d_29">
      <path d="M 108 107.364987 
L 777.6 107.364987 
" clip-path="url(#p80e6db7088)" style="fill: none; stroke-dasharray: 5.12,1.28,0.8,1.28; stroke-dashoffset: 0; stroke: #b0b0b0; stroke-width: 0.8"/>
     </g>
     <g id="line2d_30">
      <g>
       <use xlink:href="#m32b2bb6773" x="108" y="107.364987" style="fill: #a9a9a9; stroke: #a9a9a9; stroke-width: 0.8"/>
      </g>
     </g>
     <g id="text_15">
      <!-- 2100 -->
      <g style="fill: #a9a9a9" transform="translate(75.55 111.164205)scale(0.1 -0.1)">
       <use xlink:href="#DejaVuSans-32"/>
       <use xlink:href="#DejaVuSans-31" x="63.623047"/>
       <use xlink:href="#DejaVuSans-30" x="127.246094"/>
       <use xlink:href="#DejaVuSans-30" x="190.869141"/>
      </g>
     </g>
    </g>
    <g id="ytick_9">
     <g id="line2d_31">
      <path d="M 108 78.717772 
L 777.6 78.717772 
" clip-path="url(#p80e6db7088)" style="fill: none; stroke-dasharray: 5.12,1.28,0.8,1.28; stroke-dashoffset: 0; stroke: #b0b0b0; stroke-width: 0.8"/>
     </g>
     <g id="line2d_32">
      <g>
       <use xlink:href="#m32b2bb6773" x="108" y="78.717772" style="fill: #a9a9a9; stroke: #a9a9a9; stroke-width: 0.8"/>
      </g>
     </g>
     <g id="text_16">
      <!-- 2400 -->
      <g style="fill: #a9a9a9" transform="translate(75.55 82.516991)scale(0.1 -0.1)">
       <defs>
        <path id="DejaVuSans-34" d="M 2419 4116 
L 825 1625 
L 2419 1625 
L 2419 4116 
z
M 2253 4666 
L 3047 4666 
L 3047 1625 
L 3713 1625 
L 3713 1100 
L 3047 1100 
L 3047 0 
L 2419 0 
L 2419 1100 
L 313 1100 
L 313 1709 
L 2253 4666 
z
" transform="scale(0.015625)"/>
       </defs>
       <use xlink:href="#DejaVuSans-32"/>
       <use xlink:href="#DejaVuSans-34" x="63.623047"/>
       <use xlink:href="#DejaVuSans-30" x="127.246094"/>
       <use xlink:href="#DejaVuSans-30" x="190.869141"/>
      </g>
     </g>
    </g>
    <g id="ytick_10">
     <g id="line2d_33">
      <path d="M 108 50.070557 
L 777.6 50.070557 
" clip-path="url(#p80e6db7088)" style="fill: none; stroke-dasharray: 5.12,1.28,0.8,1.28; stroke-dashoffset: 0; stroke: #b0b0b0; stroke-width: 0.8"/>
     </g>
     <g id="line2d_34">
      <g>
       <use xlink:href="#m32b2bb6773" x="108" y="50.070557" style="fill: #a9a9a9; stroke: #a9a9a9; stroke-width: 0.8"/>
      </g>
     </g>
     <g id="text_17">
      <!-- 2700 -->
      <g style="fill: #a9a9a9" transform="translate(75.55 53.869776)scale(0.1 -0.1)">
       <use xlink:href="#DejaVuSans-32"/>
       <use xlink:href="#DejaVuSans-37" x="63.623047"/>
       <use xlink:href="#DejaVuSans-30" x="127.246094"/>
       <use xlink:href="#DejaVuSans-30" x="190.869141"/>
      </g>
     </g>
    </g>
   </g>
   <g id="line2d_35">
    <path d="M 138.436364 307.513528 
L 144.275474 307.036074 
L 145.735252 306.845093 
L 147.195029 306.845093 
L 148.654807 306.272149 
L 151.574362 306.081167 
L 161.792806 304.075862 
L 164.712361 303.78939 
L 166.172139 303.502918 
L 170.551472 303.216446 
L 172.011249 302.45252 
L 173.471027 302.070557 
L 174.930804 300.351724 
L 176.390582 299.396817 
L 177.85036 296.054642 
L 179.310137 295.86366 
L 180.769915 294.717772 
L 182.229693 294.144828 
L 183.68947 293.285411 
L 188.068803 289.752255 
L 189.528581 288.988329 
L 192.448136 287.74695 
L 193.907914 286.696552 
L 195.367691 286.123607 
L 198.287247 284.309284 
L 199.747024 283.83183 
L 201.206802 281.444562 
L 202.666579 280.298674 
L 204.126357 279.439257 
L 205.586135 278.770822 
L 211.425245 277.911406 
L 215.804578 277.14748 
L 218.724133 276.956499 
L 220.183911 276.670027 
L 221.643689 275.906101 
L 227.482799 275.428647 
L 231.862132 274.951194 
L 233.32191 274.47374 
L 240.620798 273.041379 
L 243.540353 272.754907 
L 245.000131 272.372944 
L 249.379464 271.8 
L 250.839241 271.036074 
L 252.299019 270.845093 
L 255.218574 269.794695 
L 258.138129 269.508223 
L 259.597907 269.030769 
L 265.437018 268.171353 
L 266.896795 267.693899 
L 269.816351 267.216446 
L 271.276128 267.216446 
L 278.575016 266.261538 
L 281.494572 265.402122 
L 282.954349 265.020159 
L 285.873905 264.733687 
L 287.333682 264.638196 
L 291.713015 263.77878 
L 293.172793 263.205836 
L 294.63257 261.296021 
L 296.092348 260.723077 
L 297.552126 259.959151 
L 299.011903 259.76817 
L 300.471681 259.386207 
L 301.931458 259.195225 
L 304.851014 257.953846 
L 306.310791 257.858355 
L 313.60968 255.85305 
L 315.069457 255.85305 
L 317.989012 255.471088 
L 320.908568 254.611671 
L 325.287901 253.465782 
L 326.747678 253.370292 
L 329.667233 252.128912 
L 331.127011 251.937931 
L 332.586789 251.269496 
L 335.506344 250.983024 
L 336.966122 250.887533 
L 341.345455 250.123607 
L 344.26501 249.646154 
L 348.644343 248.786737 
L 350.10412 248.309284 
L 351.563898 248.118302 
L 354.483453 247.067905 
L 355.943231 246.208488 
L 357.403009 245.826525 
L 358.862786 245.635544 
L 361.782341 244.680637 
L 364.701897 243.057294 
L 366.161674 242.102387 
L 367.621452 241.911406 
L 369.08123 241.433952 
L 370.541007 241.242971 
L 372.000785 240.861008 
L 373.460562 240.670027 
L 374.92034 240.001592 
L 377.839895 239.428647 
L 379.299673 238.664721 
L 380.759451 238.091777 
L 382.219228 237.709814 
L 383.679006 237.518833 
L 385.138784 236.945889 
L 390.977894 235.8 
L 393.897449 234.46313 
L 395.357227 234.176658 
L 396.817005 233.603714 
L 398.276782 233.412732 
L 399.73656 232.744297 
L 401.196337 232.362334 
L 404.115893 232.171353 
L 407.035448 231.120955 
L 408.495226 230.929973 
L 409.955003 230.929973 
L 411.414781 230.261538 
L 414.334336 229.784085 
L 415.794114 229.211141 
L 418.713669 229.11565 
L 424.55278 228.351724 
L 427.472335 226.919363 
L 430.39189 225.582493 
L 431.851668 225.200531 
L 433.311445 224.245623 
L 434.771223 223.76817 
L 437.690778 222.4313 
L 439.150556 222.144828 
L 440.610334 221.476393 
L 442.070111 220.998939 
L 443.529889 220.044032 
L 444.989666 219.280106 
L 446.449444 217.752255 
L 447.909222 215.364987 
L 449.368999 213.264191 
L 450.828777 212.786737 
L 452.288555 212.691247 
L 453.748332 211.73634 
L 455.20811 210.590451 
L 456.667888 210.208488 
L 458.127665 209.349072 
L 459.587443 209.062599 
L 461.04722 207.725729 
L 462.506998 207.343767 
L 466.886331 205.338462 
L 468.346109 203.619629 
L 469.805886 201.232361 
L 471.265664 200.372944 
L 472.725441 197.985676 
L 474.185219 196.553316 
L 475.644997 195.78939 
L 477.104774 195.407427 
L 478.564552 194.357029 
L 481.484107 192.924668 
L 482.943885 191.874271 
L 484.403663 190.632891 
L 485.86344 189.582493 
L 487.323218 188.723077 
L 488.782995 186.622281 
L 490.242773 183.280106 
L 491.702551 181.08382 
L 493.162328 179.84244 
L 494.622106 179.174005 
L 499.001439 175.258886 
L 503.380772 171.725729 
L 504.840549 170.48435 
L 506.300327 168.383554 
L 507.760105 166.951194 
L 509.219882 165.805305 
L 512.139438 163.8 
L 515.058993 161.699204 
L 516.51877 160.457825 
L 517.978548 160.075862 
L 522.357881 157.688594 
L 525.277436 156.065252 
L 526.737214 155.396817 
L 529.656769 152.818568 
L 531.116547 151.004244 
L 534.036102 148.998939 
L 535.49588 148.616976 
L 536.955657 147.85305 
L 538.415435 146.802653 
L 541.33499 145.274801 
L 542.794768 144.988329 
L 544.254545 144.033422 
L 545.714323 143.269496 
L 547.174101 142.314589 
L 548.633878 140.882228 
L 550.093656 139.83183 
L 551.553434 139.354377 
L 553.013211 138.303979 
L 554.472989 137.635544 
L 555.932767 136.680637 
L 557.392544 136.012202 
L 558.852322 135.057294 
L 560.312099 133.815915 
L 563.231655 132.765517 
L 564.691432 132.097082 
L 566.15121 131.81061 
L 567.610988 130.855703 
L 569.070765 130.569231 
L 577.829431 127.131565 
L 579.289209 126.749602 
L 580.748986 126.176658 
L 583.668542 125.603714 
L 585.128319 124.171353 
L 586.588097 123.025464 
L 588.047874 122.45252 
L 593.886985 119.110345 
L 595.346763 118.537401 
L 596.80654 118.155438 
L 598.266318 117.009549 
L 599.726095 116.436605 
L 602.645651 114.52679 
L 604.105428 113.762865 
L 608.484761 112.807958 
L 611.404317 111.948541 
L 615.783649 109.465782 
L 617.243427 109.274801 
L 618.703205 108.701857 
L 620.162982 108.510875 
L 621.62276 107.937931 
L 623.082538 106.983024 
L 624.542315 105.741645 
L 626.002093 104.786737 
L 627.461871 104.500265 
L 628.921648 103.73634 
L 630.381426 103.449867 
L 631.841203 102.876923 
L 633.300981 101.826525 
L 634.760759 101.349072 
L 636.220536 100.680637 
L 642.059647 99.057294 
L 643.519424 98.961804 
L 644.979202 98.48435 
L 647.898757 97.14748 
L 649.358535 96.670027 
L 650.818313 96.383554 
L 655.197646 94.282759 
L 658.117201 93.423342 
L 659.576978 93.327851 
L 662.496534 92.659416 
L 663.956311 91.895491 
L 665.416089 91.513528 
L 668.335644 90.272149 
L 672.714977 88.171353 
L 675.634532 86.261538 
L 677.09431 85.784085 
L 678.554088 84.924668 
L 680.013865 84.351724 
L 681.473643 83.492308 
L 684.393198 82.632891 
L 685.852976 81.773475 
L 688.772531 80.532095 
L 691.692086 79.959151 
L 693.151864 78.908753 
L 694.611642 78.144828 
L 696.071419 77.858355 
L 697.531197 77.285411 
L 698.990974 76.521485 
L 700.450752 76.235013 
L 701.91053 75.471088 
L 707.74964 74.611671 
L 710.669196 73.274801 
L 712.128973 72.128912 
L 713.588751 69.359682 
L 715.048528 68.977719 
L 716.508306 68.786737 
L 717.968084 68.404775 
L 720.887639 66.781432 
L 722.347417 66.208488 
L 723.807194 65.444562 
L 725.266972 65.062599 
L 728.186527 63.630239 
L 732.56586 61.433952 
L 734.025638 60.861008 
L 735.485415 59.906101 
L 736.945193 59.333156 
L 741.324526 58.091777 
L 744.244081 56.659416 
L 745.703859 55.990981 
L 747.163636 55.8 
L 747.163636 55.8 
" clip-path="url(#p80e6db7088)" style="fill: none; stroke: #1f77b4; stroke-width: 1.5; stroke-linecap: square"/>
   </g>
   <g id="line2d_36">
    <path d="M 139.896141 307.8 
L 142.815697 307.8 
L 145.735252 307.418037 
L 154.493918 307.322546 
L 158.87325 307.131565 
L 163.252583 307.036074 
L 166.172139 306.940584 
L 170.551472 306.940584 
L 172.011249 306.558621 
L 176.390582 306.46313 
L 183.68947 305.603714 
L 195.367691 304.935279 
L 196.827469 304.935279 
L 198.287247 304.648806 
L 202.666579 304.553316 
L 205.586135 304.171353 
L 211.425245 304.171353 
L 212.885023 303.980371 
L 220.183911 303.884881 
L 224.563244 303.693899 
L 237.701243 303.598408 
L 240.620798 303.502918 
L 246.459908 303.407427 
L 250.839241 303.216446 
L 256.678352 303.216446 
L 258.138129 303.025464 
L 262.517462 302.929973 
L 268.356573 302.643501 
L 278.575016 302.548011 
L 281.494572 302.45252 
L 287.333682 302.357029 
L 291.713015 301.784085 
L 299.011903 301.688594 
L 306.310791 301.306631 
L 313.60968 301.211141 
L 317.989012 301.020159 
L 320.908568 300.924668 
L 325.287901 300.447215 
L 329.667233 300.256233 
L 334.046566 300.160743 
L 336.966122 300.065252 
L 339.885677 300.065252 
L 341.345455 299.874271 
L 345.724787 299.874271 
L 350.10412 299.396817 
L 354.483453 299.301326 
L 357.403009 299.205836 
L 360.322564 299.205836 
L 366.161674 298.537401 
L 367.621452 298.44191 
L 369.08123 298.155438 
L 374.92034 298.059947 
L 379.299673 297.677984 
L 382.219228 297.391512 
L 389.518116 297.009549 
L 393.897449 296.914058 
L 398.276782 296.723077 
L 399.73656 296.723077 
L 402.656115 296.436605 
L 405.57567 296.341114 
L 407.035448 296.341114 
L 408.495226 296.150133 
L 411.414781 296.054642 
L 418.713669 295.672679 
L 421.633224 295.577188 
L 426.012557 295.386207 
L 430.39189 295.290716 
L 433.311445 295.195225 
L 440.610334 295.099735 
L 446.449444 294.4313 
L 447.909222 294.4313 
L 450.828777 294.144828 
L 453.748332 294.049337 
L 459.587443 293.571883 
L 461.04722 293.380902 
L 462.506998 292.998939 
L 465.426553 292.807958 
L 466.886331 292.425995 
L 471.265664 292.044032 
L 474.185219 291.375597 
L 478.564552 291.184615 
L 480.02433 291.184615 
L 481.484107 290.993634 
L 482.943885 290.993634 
L 485.86344 290.51618 
L 491.702551 289.465782 
L 493.162328 289.465782 
L 494.622106 289.274801 
L 499.001439 289.17931 
L 503.380772 288.797347 
L 506.300327 288.510875 
L 515.058993 288.033422 
L 516.51877 288.033422 
L 522.357881 287.269496 
L 523.817659 287.269496 
L 526.737214 286.792042 
L 529.656769 286.50557 
L 532.576324 286.41008 
L 535.49588 286.41008 
L 536.955657 286.028117 
L 538.415435 285.837135 
L 541.33499 285.741645 
L 551.553434 284.977719 
L 555.932767 284.118302 
L 558.852322 284.022812 
L 566.15121 283.640849 
L 570.530543 283.545358 
L 589.507652 282.399469 
L 592.427207 282.399469 
L 595.346763 282.112997 
L 598.266318 282.112997 
L 602.645651 281.635544 
L 608.484761 281.349072 
L 611.404317 281.253581 
L 612.864094 281.062599 
L 615.783649 281.062599 
L 617.243427 280.871618 
L 620.162982 280.776127 
L 628.921648 280.298674 
L 634.760759 280.203183 
L 639.140092 280.012202 
L 640.599869 280.012202 
L 642.059647 279.725729 
L 644.979202 279.630239 
L 653.737868 279.534748 
L 659.576978 279.248276 
L 663.956311 279.152785 
L 665.416089 278.866313 
L 671.255199 278.770822 
L 675.634532 278.579841 
L 680.013865 278.48435 
L 682.933421 278.388859 
L 685.852976 278.293369 
L 697.531197 277.624934 
L 704.830085 277.529443 
L 709.209418 277.14748 
L 712.128973 276.861008 
L 715.048528 276.765517 
L 717.968084 276.670027 
L 719.427861 276.479045 
L 723.807194 276.383554 
L 725.266972 276.001592 
L 731.106082 275.715119 
L 741.324526 275.619629 
L 747.163636 275.333156 
L 747.163636 275.333156 
" clip-path="url(#p80e6db7088)" style="fill: none; stroke: #ff7f0e; stroke-width: 1.5; stroke-linecap: square"/>
   </g>
   <g id="patch_3">
    <path d="M 108 320.4 
L 108 43.2 
" style="fill: none; stroke: #a9a9a9; stroke-width: 0.8; stroke-linejoin: miter; stroke-linecap: square"/>
   </g>
   <g id="patch_4">
    <path d="M 777.6 320.4 
L 777.6 43.2 
" style="fill: none"/>
   </g>
   <g id="patch_5">
    <path d="M 108 320.4 
L 777.6 320.4 
" style="fill: none; stroke: #a9a9a9; stroke-width: 0.8; stroke-linejoin: miter; stroke-linecap: square"/>
   </g>
   <g id="patch_6">
    <path d="M 108 43.2 
L 777.6 43.2 
" style="fill: none"/>
   </g>
   <g id="text_18">
    <!-- get_subscribe history -->
    <g style="fill: #a9a9a9" transform="translate(378.6075 37.2)scale(0.12 -0.12)">
     <defs>
      <path id="DejaVuSans-67" d="M 2906 1791 
Q 2906 2416 2648 2759 
Q 2391 3103 1925 3103 
Q 1463 3103 1205 2759 
Q 947 2416 947 1791 
Q 947 1169 1205 825 
Q 1463 481 1925 481 
Q 2391 481 2648 825 
Q 2906 1169 2906 1791 
z
M 3481 434 
Q 3481 -459 3084 -895 
Q 2688 -1331 1869 -1331 
Q 1566 -1331 1297 -1286 
Q 1028 -1241 775 -1147 
L 775 -588 
Q 1028 -725 1275 -790 
Q 1522 -856 1778 -856 
Q 2344 -856 2625 -561 
Q 2906 -266 2906 331 
L 2906 616 
Q 2728 306 2450 153 
Q 2172 0 1784 0 
Q 1141 0 747 490 
Q 353 981 353 1791 
Q 353 2603 747 3093 
Q 1141 3584 1784 3584 
Q 2172 3584 2450 3431 
Q 2728 3278 2906 2969 
L 2906 3500 
L 3481 3500 
L 3481 434 
z
" transform="scale(0.015625)"/>
      <path id="DejaVuSans-65" d="M 3597 1894 
L 3597 1613 
L 953 1613 
Q 991 1019 1311 708 
Q 1631 397 2203 397 
Q 2534 397 2845 478 
Q 3156 559 3463 722 
L 3463 178 
Q 3153 47 2828 -22 
Q 2503 -91 2169 -91 
Q 1331 -91 842 396 
Q 353 884 353 1716 
Q 353 2575 817 3079 
Q 1281 3584 2069 3584 
Q 2775 3584 3186 3129 
Q 3597 2675 3597 1894 
z
M 3022 2063 
Q 3016 2534 2758 2815 
Q 2500 3097 2075 3097 
Q 1594 3097 1305 2825 
Q 1016 2553 972 2059 
L 3022 2063 
z
" transform="scale(0.015625)"/>
      <path id="DejaVuSans-74" d="M 1172 4494 
L 1172 3500 
L 2356 3500 
L 2356 3053 
L 1172 3053 
L 1172 1153 
Q 1172 725 1289 603 
Q 1406 481 1766 481 
L 2356 481 
L 2356 0 
L 1766 0 
Q 1100 0 847 248 
Q 594 497 594 1153 
L 594 3053 
L 172 3053 
L 172 3500 
L 594 3500 
L 594 4494 
L 1172 4494 
z
" transform="scale(0.015625)"/>
      <path id="DejaVuSans-5f" d="M 3263 -1063 
L 3263 -1509 
L -63 -1509 
L -63 -1063 
L 3263 -1063 
z
" transform="scale(0.015625)"/>
      <path id="DejaVuSans-73" d="M 2834 3397 
L 2834 2853 
Q 2591 2978 2328 3040 
Q 2066 3103 1784 3103 
Q 1356 3103 1142 2972 
Q 928 2841 928 2578 
Q 928 2378 1081 2264 
Q 1234 2150 1697 2047 
L 1894 2003 
Q 2506 1872 2764 1633 
Q 3022 1394 3022 966 
Q 3022 478 2636 193 
Q 2250 -91 1575 -91 
Q 1294 -91 989 -36 
Q 684 19 347 128 
L 347 722 
Q 666 556 975 473 
Q 1284 391 1588 391 
Q 1994 391 2212 530 
Q 2431 669 2431 922 
Q 2431 1156 2273 1281 
Q 2116 1406 1581 1522 
L 1381 1569 
Q 847 1681 609 1914 
Q 372 2147 372 2553 
Q 372 3047 722 3315 
Q 1072 3584 1716 3584 
Q 2034 3584 2315 3537 
Q 2597 3491 2834 3397 
z
" transform="scale(0.015625)"/>
      <path id="DejaVuSans-75" d="M 544 1381 
L 544 3500 
L 1119 3500 
L 1119 1403 
Q 1119 906 1312 657 
Q 1506 409 1894 409 
Q 2359 409 2629 706 
Q 2900 1003 2900 1516 
L 2900 3500 
L 3475 3500 
L 3475 0 
L 2900 0 
L 2900 538 
Q 2691 219 2414 64 
Q 2138 -91 1772 -91 
Q 1169 -91 856 284 
Q 544 659 544 1381 
z
M 1991 3584 
L 1991 3584 
z
" transform="scale(0.015625)"/>
      <path id="DejaVuSans-62" d="M 3116 1747 
Q 3116 2381 2855 2742 
Q 2594 3103 2138 3103 
Q 1681 3103 1420 2742 
Q 1159 2381 1159 1747 
Q 1159 1113 1420 752 
Q 1681 391 2138 391 
Q 2594 391 2855 752 
Q 3116 1113 3116 1747 
z
M 1159 2969 
Q 1341 3281 1617 3432 
Q 1894 3584 2278 3584 
Q 2916 3584 3314 3078 
Q 3713 2572 3713 1747 
Q 3713 922 3314 415 
Q 2916 -91 2278 -91 
Q 1894 -91 1617 61 
Q 1341 213 1159 525 
L 1159 0 
L 581 0 
L 581 4863 
L 1159 4863 
L 1159 2969 
z
" transform="scale(0.015625)"/>
      <path id="DejaVuSans-63" d="M 3122 3366 
L 3122 2828 
Q 2878 2963 2633 3030 
Q 2388 3097 2138 3097 
Q 1578 3097 1268 2742 
Q 959 2388 959 1747 
Q 959 1106 1268 751 
Q 1578 397 2138 397 
Q 2388 397 2633 464 
Q 2878 531 3122 666 
L 3122 134 
Q 2881 22 2623 -34 
Q 2366 -91 2075 -91 
Q 1284 -91 818 406 
Q 353 903 353 1747 
Q 353 2603 823 3093 
Q 1294 3584 2113 3584 
Q 2378 3584 2631 3529 
Q 2884 3475 3122 3366 
z
" transform="scale(0.015625)"/>
      <path id="DejaVuSans-72" d="M 2631 2963 
Q 2534 3019 2420 3045 
Q 2306 3072 2169 3072 
Q 1681 3072 1420 2755 
Q 1159 2438 1159 1844 
L 1159 0 
L 581 0 
L 581 3500 
L 1159 3500 
L 1159 2956 
Q 1341 3275 1631 3429 
Q 1922 3584 2338 3584 
Q 2397 3584 2469 3576 
Q 2541 3569 2628 3553 
L 2631 2963 
z
" transform="scale(0.015625)"/>
      <path id="DejaVuSans-69" d="M 603 3500 
L 1178 3500 
L 1178 0 
L 603 0 
L 603 3500 
z
M 603 4863 
L 1178 4863 
L 1178 4134 
L 603 4134 
L 603 4863 
z
" transform="scale(0.015625)"/>
      <path id="DejaVuSans-20" transform="scale(0.015625)"/>
      <path id="DejaVuSans-68" d="M 3513 2113 
L 3513 0 
L 2938 0 
L 2938 2094 
Q 2938 2591 2744 2837 
Q 2550 3084 2163 3084 
Q 1697 3084 1428 2787 
Q 1159 2491 1159 1978 
L 1159 0 
L 581 0 
L 581 4863 
L 1159 4863 
L 1159 2956 
Q 1366 3272 1645 3428 
Q 1925 3584 2291 3584 
Q 2894 3584 3203 3211 
Q 3513 2838 3513 2113 
z
" transform="scale(0.015625)"/>
      <path id="DejaVuSans-6f" d="M 1959 3097 
Q 1497 3097 1228 2736 
Q 959 2375 959 1747 
Q 959 1119 1226 758 
Q 1494 397 1959 397 
Q 2419 397 2687 759 
Q 2956 1122 2956 1747 
Q 2956 2369 2687 2733 
Q 2419 3097 1959 3097 
z
M 1959 3584 
Q 2709 3584 3137 3096 
Q 3566 2609 3566 1747 
Q 3566 888 3137 398 
Q 2709 -91 1959 -91 
Q 1206 -91 779 398 
Q 353 888 353 1747 
Q 353 2609 779 3096 
Q 1206 3584 1959 3584 
z
" transform="scale(0.015625)"/>
      <path id="DejaVuSans-79" d="M 2059 -325 
Q 1816 -950 1584 -1140 
Q 1353 -1331 966 -1331 
L 506 -1331 
L 506 -850 
L 844 -850 
Q 1081 -850 1212 -737 
Q 1344 -625 1503 -206 
L 1606 56 
L 191 3500 
L 800 3500 
L 1894 763 
L 2988 3500 
L 3597 3500 
L 2059 -325 
z
" transform="scale(0.015625)"/>
     </defs>
     <use xlink:href="#DejaVuSans-67"/>
     <use xlink:href="#DejaVuSans-65" x="63.476562"/>
     <use xlink:href="#DejaVuSans-74" x="125"/>
     <use xlink:href="#DejaVuSans-5f" x="164.208984"/>
     <use xlink:href="#DejaVuSans-73" x="214.208984"/>
     <use xlink:href="#DejaVuSans-75" x="266.308594"/>
     <use xlink:href="#DejaVuSans-62" x="329.6875"/>
     <use xlink:href="#DejaVuSans-73" x="393.164062"/>
     <use xlink:href="#DejaVuSans-63" x="445.263672"/>
     <use xlink:href="#DejaVuSans-72" x="500.244141"/>
     <use xlink:href="#DejaVuSans-69" x="541.357422"/>
     <use xlink:href="#DejaVuSans-62" x="569.140625"/>
     <use xlink:href="#DejaVuSans-65" x="632.617188"/>
     <use xlink:href="#DejaVuSans-20" x="694.140625"/>
     <use xlink:href="#DejaVuSans-68" x="725.927734"/>
     <use xlink:href="#DejaVuSans-69" x="789.306641"/>
     <use xlink:href="#DejaVuSans-73" x="817.089844"/>
     <use xlink:href="#DejaVuSans-74" x="869.189453"/>
     <use xlink:href="#DejaVuSans-6f" x="908.398438"/>
     <use xlink:href="#DejaVuSans-72" x="969.580078"/>
     <use xlink:href="#DejaVuSans-79" x="1010.693359"/>
    </g>
   </g>
   <g id="legend_1">
    <g id="line2d_37">
     <path d="M 815.08 328.498438 
L 825.08 328.498438 
L 835.08 328.498438 
" style="fill: none; stroke: #1f77b4; stroke-width: 1.5; stroke-linecap: square"/>
    </g>
    <g id="text_19">
     <!-- star -->
     <g style="fill: #a9a9a9" transform="translate(843.08 331.998438)scale(0.1 -0.1)">
      <defs>
       <path id="DejaVuSans-61" d="M 2194 1759 
Q 1497 1759 1228 1600 
Q 959 1441 959 1056 
Q 959 750 1161 570 
Q 1363 391 1709 391 
Q 2188 391 2477 730 
Q 2766 1069 2766 1631 
L 2766 1759 
L 2194 1759 
z
M 3341 1997 
L 3341 0 
L 2766 0 
L 2766 531 
Q 2569 213 2275 61 
Q 1981 -91 1556 -91 
Q 1019 -91 701 211 
Q 384 513 384 1019 
Q 384 1609 779 1909 
Q 1175 2209 1959 2209 
L 2766 2209 
L 2766 2266 
Q 2766 2663 2505 2880 
Q 2244 3097 1772 3097 
Q 1472 3097 1187 3025 
Q 903 2953 641 2809 
L 641 3341 
Q 956 3463 1253 3523 
Q 1550 3584 1831 3584 
Q 2591 3584 2966 3190 
Q 3341 2797 3341 1997 
z
" transform="scale(0.015625)"/>
      </defs>
      <use xlink:href="#DejaVuSans-73"/>
      <use xlink:href="#DejaVuSans-74" x="52.099609"/>
      <use xlink:href="#DejaVuSans-61" x="91.308594"/>
      <use xlink:href="#DejaVuSans-72" x="152.587891"/>
     </g>
    </g>
    <g id="line2d_38">
     <path d="M 815.08 343.176562 
L 825.08 343.176562 
L 835.08 343.176562 
" style="fill: none; stroke: #ff7f0e; stroke-width: 1.5; stroke-linecap: square"/>
    </g>
    <g id="text_20">
     <!-- fork -->
     <g style="fill: #a9a9a9" transform="translate(843.08 346.676562)scale(0.1 -0.1)">
      <defs>
       <path id="DejaVuSans-66" d="M 2375 4863 
L 2375 4384 
L 1825 4384 
Q 1516 4384 1395 4259 
Q 1275 4134 1275 3809 
L 1275 3500 
L 2222 3500 
L 2222 3053 
L 1275 3053 
L 1275 0 
L 697 0 
L 697 3053 
L 147 3053 
L 147 3500 
L 697 3500 
L 697 3744 
Q 697 4328 969 4595 
Q 1241 4863 1831 4863 
L 2375 4863 
z
" transform="scale(0.015625)"/>
       <path id="DejaVuSans-6b" d="M 581 4863 
L 1159 4863 
L 1159 1991 
L 2875 3500 
L 3609 3500 
L 1753 1863 
L 3688 0 
L 2938 0 
L 1159 1709 
L 1159 0 
L 581 0 
L 581 4863 
z
" transform="scale(0.015625)"/>
      </defs>
      <use xlink:href="#DejaVuSans-66"/>
      <use xlink:href="#DejaVuSans-6f" x="35.205078"/>
      <use xlink:href="#DejaVuSans-72" x="96.386719"/>
      <use xlink:href="#DejaVuSans-6b" x="137.5"/>
     </g>
    </g>
   </g>
  </g>
 </g>
 <defs>
  <clipPath id="p80e6db7088">
   <rect x="108" y="43.2" width="669.6" height="277.2"/>
  </clipPath>
 </defs>
</svg>
